<svg width="391" height="259" viewBox="0 0 391 259" fill="none" xmlns="http://www.w3.org/2000/svg">
<rect width="391" height="259" fill="black"/>
<circle cx="196" cy="130" r="100" fill="white"/>
<path d="M186.3 142.2L184.2 162H123.1V157.6H126.2C128.133 157.6 129.533 157.3 130.4 156.7C131.267 156.033 131.7 155.033 131.7 153.7V100.3C131.7 98.9667 131.267 98 130.4 97.4C129.533 96.7333 128.133 96.4 126.2 96.4H123.1V92H184.3V111.8H179.8C179.533 108.533 178.633 105.467 177.1 102.6C175.633 99.7333 172.867 98.3 168.8 98.3H150.3V122.6H163.5C165.5 122.6 166.833 121.867 167.5 120.4C168.167 118.867 168.633 116.633 168.9 113.7H172.5V137.8H168.9C168.633 134.867 168.167 132.667 167.5 131.2C166.833 129.667 165.5 128.9 163.5 128.9H150.3V155.8H171.5C174.767 155.8 177.133 154.6 178.6 152.2C180.133 149.733 181.2 146.4 181.8 142.2H186.3ZM268.683 157.6V162H234.183V157.6H236.483C237.616 157.6 238.583 157.367 239.383 156.9C240.183 156.367 240.583 155.733 240.583 155C240.583 154.467 240.383 153.967 239.983 153.5L226.283 135.1L209.783 152.8C209.183 153.4 208.883 154 208.883 154.6C208.883 155.467 209.416 156.2 210.483 156.8C211.549 157.333 212.583 157.6 213.583 157.6H215.783V162H190.283V157.6H191.983C194.116 157.6 196.383 156.333 198.783 153.8L221.883 129.1L200.283 100C199.349 98.7333 198.449 97.8333 197.583 97.3C196.783 96.7 195.916 96.4 194.983 96.4H192.683V92H227.183V96.4H224.883C223.749 96.4 222.749 96.6667 221.883 97.2C221.083 97.6667 220.683 98.2667 220.683 99C220.683 99.4667 220.883 99.9667 221.283 100.5L233.383 116.8L247.983 101.2C248.583 100.6 248.883 100.033 248.883 99.5C248.883 98.6333 248.316 97.9 247.183 97.3C246.116 96.7 245.083 96.4 244.083 96.4H241.883V92H267.383V96.4H265.683C263.549 96.4 261.283 97.6667 258.883 100.2L237.783 122.8L261.083 154.1C261.949 155.3 262.783 156.2 263.583 156.8C264.449 157.333 265.383 157.6 266.383 157.6H268.683Z" fill="#D1BDB4"/>
</svg>
