<svg width="391" height="259" viewBox="0 0 391 259" fill="none" xmlns="http://www.w3.org/2000/svg">
<rect width="391" height="259" fill="#E96D49"/>
<path d="M63.6104 130.335C63.6104 134.185 62.93 137.56 61.5693 140.46C60.2087 143.36 58.2572 145.598 55.7148 147.174C53.1904 148.749 50.29 149.537 47.0137 149.537C43.7731 149.537 40.8817 148.758 38.3394 147.201C35.797 145.643 33.8276 143.423 32.4312 140.541C31.0347 137.64 30.3275 134.31 30.3096 130.55V128.617C30.3096 124.767 30.9989 121.384 32.3774 118.465C33.7739 115.529 35.7344 113.282 38.2588 111.725C40.8011 110.149 43.7015 109.361 46.96 109.361C50.2184 109.361 53.1099 110.149 55.6343 111.725C58.1766 113.282 60.137 115.529 61.5156 118.465C62.9121 121.384 63.6104 124.758 63.6104 128.59V130.335ZM55.4463 128.563C55.4463 124.463 54.7122 121.348 53.2441 119.217C51.776 117.087 49.6813 116.021 46.96 116.021C44.2565 116.021 42.1707 117.078 40.7026 119.19C39.2345 121.285 38.4915 124.365 38.4736 128.429V130.335C38.4736 134.328 39.2077 137.425 40.6758 139.627C42.1439 141.83 44.2565 142.931 47.0137 142.931C49.7171 142.931 51.7939 141.874 53.2441 139.762C54.6943 137.631 55.4284 134.534 55.4463 130.47V128.563ZM95.1118 134.74C95.1118 139.216 94.0913 142.805 92.0503 145.509C90.0272 148.194 87.2879 149.537 83.8325 149.537C80.8963 149.537 78.5241 148.517 76.7158 146.476V160.172H68.9546V119.942H76.1519L76.4204 122.789C78.3003 120.533 80.7531 119.405 83.7788 119.405C87.3595 119.405 90.1436 120.73 92.1309 123.38C94.1182 126.03 95.1118 129.682 95.1118 134.337V134.74ZM87.3506 134.176C87.3506 131.472 86.8672 129.387 85.9004 127.918C84.9515 126.45 83.564 125.716 81.7378 125.716C79.3029 125.716 77.6289 126.647 76.7158 128.509V140.406C77.6647 142.322 79.3566 143.28 81.7915 143.28C85.4976 143.28 87.3506 140.245 87.3506 134.176ZM113.32 149.537C109.059 149.537 105.585 148.23 102.9 145.616C100.232 143.002 98.8984 139.52 98.8984 135.169V134.417C98.8984 131.499 99.4624 128.894 100.59 126.603C101.718 124.293 103.312 122.521 105.371 121.285C107.447 120.032 109.811 119.405 112.46 119.405C116.435 119.405 119.559 120.659 121.833 123.165C124.125 125.672 125.271 129.225 125.271 133.827V136.996H106.767C107.018 138.893 107.77 140.415 109.023 141.561C110.294 142.707 111.896 143.28 113.83 143.28C116.82 143.28 119.156 142.197 120.839 140.03L124.653 144.3C123.489 145.947 121.914 147.236 119.926 148.167C117.939 149.081 115.737 149.537 113.32 149.537ZM112.434 125.689C110.894 125.689 109.641 126.209 108.674 127.247C107.725 128.285 107.116 129.771 106.848 131.705H117.644V131.087C117.608 129.369 117.142 128.044 116.247 127.113C115.352 126.164 114.081 125.689 112.434 125.689ZM136.845 119.942L137.087 123.299C139.164 120.703 141.948 119.405 145.439 119.405C148.518 119.405 150.81 120.309 152.314 122.118C153.818 123.926 154.588 126.629 154.624 130.228V149H146.862V130.416C146.862 128.769 146.504 127.578 145.788 126.844C145.072 126.092 143.881 125.716 142.216 125.716C140.032 125.716 138.394 126.647 137.302 128.509V149H129.541V119.942H136.845ZM191.496 137.721L196.76 109.898H204.79L196.115 149H188.005L181.64 122.843L175.275 149H167.165L158.491 109.898H166.521L171.811 137.667L178.256 109.898H185.078L191.496 137.721ZM221.171 149.537C216.91 149.537 213.437 148.23 210.751 145.616C208.084 143.002 206.75 139.52 206.75 135.169V134.417C206.75 131.499 207.314 128.894 208.442 126.603C209.57 124.293 211.163 122.521 213.222 121.285C215.299 120.032 217.662 119.405 220.312 119.405C224.287 119.405 227.411 120.659 229.685 123.165C231.976 125.672 233.122 129.225 233.122 133.827V136.996H214.619C214.869 138.893 215.621 140.415 216.875 141.561C218.146 142.707 219.748 143.28 221.682 143.28C224.672 143.28 227.008 142.197 228.691 140.03L232.504 144.3C231.341 145.947 229.765 147.236 227.778 148.167C225.791 149.081 223.588 149.537 221.171 149.537ZM220.285 125.689C218.745 125.689 217.492 126.209 216.525 127.247C215.576 128.285 214.968 129.771 214.699 131.705H225.495V131.087C225.459 129.369 224.994 128.044 224.099 127.113C223.203 126.164 221.932 125.689 220.285 125.689ZM254.392 149C254.034 148.302 253.774 147.433 253.613 146.395C251.733 148.49 249.289 149.537 246.281 149.537C243.435 149.537 241.071 148.714 239.191 147.066C237.329 145.419 236.398 143.342 236.398 140.836C236.398 137.757 237.535 135.393 239.809 133.746C242.101 132.099 245.404 131.266 249.719 131.249H253.291V129.583C253.291 128.241 252.941 127.167 252.243 126.361C251.563 125.555 250.48 125.152 248.994 125.152C247.687 125.152 246.657 125.466 245.905 126.092C245.171 126.719 244.804 127.578 244.804 128.67H237.043C237.043 126.987 237.562 125.43 238.601 123.998C239.639 122.565 241.107 121.446 243.005 120.641C244.903 119.817 247.033 119.405 249.396 119.405C252.977 119.405 255.815 120.309 257.91 122.118C260.022 123.908 261.079 126.432 261.079 129.691V142.286C261.097 145.043 261.481 147.129 262.233 148.543V149H254.392ZM247.973 143.602C249.119 143.602 250.175 143.351 251.142 142.85C252.109 142.331 252.825 141.642 253.291 140.782V135.787H250.39C246.505 135.787 244.437 137.13 244.187 139.815L244.16 140.272C244.16 141.239 244.5 142.035 245.18 142.662C245.861 143.289 246.792 143.602 247.973 143.602ZM276.333 112.799V119.942H281.301V125.636H276.333V140.138C276.333 141.212 276.538 141.982 276.95 142.447C277.362 142.913 278.15 143.146 279.313 143.146C280.173 143.146 280.934 143.083 281.596 142.958V148.839C280.074 149.304 278.508 149.537 276.896 149.537C271.454 149.537 268.679 146.789 268.571 141.292V125.636H264.328V119.942H268.571V112.799H276.333ZM293.198 123.111C295.257 120.641 297.844 119.405 300.959 119.405C307.261 119.405 310.457 123.067 310.546 130.389V149H302.785V130.604C302.785 128.939 302.427 127.713 301.711 126.925C300.995 126.119 299.804 125.716 298.139 125.716C295.865 125.716 294.218 126.594 293.198 128.348V149H285.437V107.75H293.198V123.111ZM329.775 149.537C325.514 149.537 322.041 148.23 319.355 145.616C316.687 143.002 315.354 139.52 315.354 135.169V134.417C315.354 131.499 315.917 128.894 317.045 126.603C318.173 124.293 319.767 122.521 321.826 121.285C323.903 120.032 326.266 119.405 328.916 119.405C332.89 119.405 336.014 120.659 338.288 123.165C340.58 125.672 341.726 129.225 341.726 133.827V136.996H323.222C323.473 138.893 324.225 140.415 325.478 141.561C326.749 142.707 328.352 143.28 330.285 143.28C333.275 143.28 335.611 142.197 337.294 140.03L341.108 144.3C339.944 145.947 338.369 147.236 336.381 148.167C334.394 149.081 332.192 149.537 329.775 149.537ZM328.889 125.689C327.349 125.689 326.096 126.209 325.129 127.247C324.18 128.285 323.571 129.771 323.303 131.705H334.099V131.087C334.063 129.369 333.597 128.044 332.702 127.113C331.807 126.164 330.536 125.689 328.889 125.689ZM362.485 127.22C361.429 127.077 360.498 127.005 359.692 127.005C356.756 127.005 354.831 127.999 353.918 129.986V149H346.157V119.942H353.488L353.703 123.407C355.261 120.739 357.418 119.405 360.175 119.405C361.035 119.405 361.84 119.522 362.592 119.754L362.485 127.22Z" fill="white"/>
</svg>
