<svg width="391" height="259" viewBox="0 0 391 259" fill="none" xmlns="http://www.w3.org/2000/svg">
<rect width="391" height="259" fill="#47817D"/>
<g filter="url(#filter0_d)">
<path d="M223.056 89.3183C223.056 89.3183 225.589 98.8893 228.401 101.502C232.751 107.084 241.837 106.25 242.842 104.902C243.847 103.553 241.73 94.9279 236.888 91.6127C232.045 88.2975 223.056 89.3183 223.056 89.3183Z" fill="#D08B7F"/>
</g>
<g filter="url(#filter1_d)">
<path d="M231.62 80.5243C231.62 80.5243 240.687 84.2891 242.794 89.7864C244.901 95.293 244.002 104.227 242.697 105.154C241.392 106.082 233.911 102.448 231.63 96.5011C229.359 90.5449 231.62 80.5243 231.62 80.5243Z" fill="#F5DFD9"/>
</g>
<g filter="url(#filter2_d)">
<path d="M251.542 80C251.542 80 242.736 84.5327 240.977 90.2079C239.228 95.8738 240.668 104.714 242.031 105.529C243.393 106.344 250.633 102.073 252.527 95.9393C254.422 89.7958 251.542 80 251.542 80Z" fill="#E0F1E0"/>
</g>
<g filter="url(#filter3_d)">
<path d="M260.607 89.3089C260.607 89.3089 258.655 97.0351 256.19 100.097C252.585 106.363 243.596 106.784 242.436 105.613C241.276 104.443 242.291 95.5554 246.679 91.4442C251.058 87.3423 260.607 89.3089 260.607 89.3089Z" fill="#47817D"/>
</g>
<path d="M46.7458 116.121L42.6283 115.025C42.2513 114.932 42 114.632 42 114.285C42 113.855 42.3963 113.508 42.8796 113.508H53.7631C57.378 113.508 60.2391 114.173 62.3558 115.494C64.4726 116.823 66.2124 118.715 67.5753 121.187L77.9562 140.376C78.2848 140.995 79.29 140.957 79.5703 140.32L84.5288 129.101C84.6158 128.904 84.6061 128.679 84.4998 128.483L77.9755 116.524C77.8692 116.327 77.6759 116.177 77.4342 116.121L73.3167 115.025C72.9397 114.922 72.6884 114.623 72.6884 114.276C72.6884 113.845 73.0847 113.499 73.568 113.499H84.4515C88.0664 113.499 90.9275 114.164 93.0442 115.484C95.161 116.814 96.9008 118.706 98.2637 121.178L108.645 140.358C108.973 140.976 109.978 140.938 110.259 140.302L119.953 118.275C120.127 117.882 119.905 117.432 119.46 117.273L113.149 115.044C112.81 114.922 112.598 114.641 112.598 114.323V114.267C112.598 113.836 112.994 113.489 113.477 113.489H130.644C131.127 113.489 131.523 113.836 131.523 114.267V114.304C131.523 114.632 131.291 114.922 130.953 115.035L123.704 117.46C123.472 117.535 123.288 117.694 123.191 117.9L104.624 159.135C104.488 159.434 104.169 159.622 103.802 159.622H101.879C101.54 159.622 101.231 159.453 101.086 159.181L87.0709 133.381C86.7422 132.772 85.7467 132.8 85.4567 133.428L73.9353 159.135C73.8 159.434 73.481 159.622 73.1137 159.622H71.1999C70.8616 159.622 70.5523 159.453 70.4073 159.181L47.2871 116.533C47.1808 116.336 46.9778 116.187 46.7458 116.121Z" fill="#F5DFD9"/>
<path d="M166.812 158.516L170.099 157.72C171.819 157.299 173.027 155.801 173.027 154.087V88.007C173.027 86.2839 171.819 84.7855 170.099 84.3734L166.812 83.5774C166.377 83.4743 166.068 83.0904 166.068 82.6596C166.068 82.1351 166.503 81.7137 167.044 81.7137H177.27C183.572 81.7137 188.686 86.6678 188.686 92.7738V154.087C188.686 155.81 189.894 157.308 191.614 157.72L194.901 158.516C195.336 158.62 195.645 159.003 195.645 159.434C195.645 159.959 195.21 160.38 194.669 160.38H167.044C166.503 160.38 166.068 159.959 166.068 159.434C166.078 158.994 166.377 158.62 166.812 158.516Z" fill="#F5DFD9"/>
<path d="M227.512 158.517L230.799 157.721C232.519 157.299 233.728 155.801 233.728 154.087V117.975C233.728 116.252 232.519 114.754 230.799 114.342L227.512 113.546C227.078 113.443 226.768 113.059 226.768 112.628C226.768 112.103 227.203 111.682 227.744 111.682H240.87C247.172 111.682 249.386 116.636 249.386 122.742V154.087C249.386 155.81 250.594 157.308 252.315 157.721L255.601 158.517C256.036 158.62 256.345 159.004 256.345 159.434C256.345 159.959 255.91 160.38 255.369 160.38H227.744C227.203 160.38 226.768 159.959 226.768 159.434C226.778 158.994 227.078 158.62 227.512 158.517Z" fill="#F5DFD9"/>
<path d="M257.669 158.517L260.955 157.72C262.676 157.299 263.884 155.801 263.884 154.087V115.812C263.884 115.287 263.449 114.866 262.908 114.866H256.741C256.2 114.866 255.765 114.445 255.765 113.92V113.002C255.765 112.478 256.2 112.056 256.741 112.056H262.908C263.449 112.056 263.884 111.635 263.884 111.111V102.691C263.884 98.7207 264.87 95.1619 266.842 92.0153C268.814 88.8686 270.843 86.209 274.516 84.4109C278.189 82.6128 280.393 81.901 285.342 81.901C289.363 81.901 292.823 82.4817 295.723 83.6429C298.622 84.8042 300.807 86.3401 302.276 88.2505C303.745 90.161 304.48 92.1651 304.48 94.2629C304.48 96.8102 303.687 98.8518 302.102 100.388C300.517 101.924 298.41 102.691 295.781 102.691C294.718 102.691 293.654 102.617 292.591 102.476C292.552 102.467 292.514 102.467 292.465 102.457L291.876 102.317C291.441 102.214 291.132 101.83 291.132 101.399V84.7105L290.088 84.4858C289.778 84.4109 289.43 84.3359 289.044 84.261C288.657 84.1861 288.193 84.1486 287.652 84.1486C285.023 84.1486 283.012 85.4785 281.621 88.1382C280.229 90.7978 279.533 95.6489 279.533 102.691V111.111C279.533 111.635 279.968 112.056 280.509 112.056H286.482C287.024 112.056 287.459 112.478 287.459 113.002V113.92C287.459 114.445 287.024 114.866 286.482 114.866H280.509C279.968 114.866 279.533 115.287 279.533 115.812V154.087C279.533 155.81 280.741 157.308 282.462 157.72L285.748 158.517C286.183 158.62 286.492 159.003 286.492 159.434C286.492 159.959 286.057 160.38 285.516 160.38H257.891C257.35 160.38 256.915 159.959 256.915 159.434C256.935 158.994 257.234 158.62 257.669 158.517Z" fill="#F5DFD9"/>
<path d="M297.463 177.724C295.781 176.207 294.93 174.119 294.93 171.45C294.93 169.043 295.617 167.17 297.008 165.84C298.391 164.51 300.227 163.845 302.518 163.845C303.059 163.845 303.6 163.892 304.132 163.986C304.673 164.079 305.041 164.126 305.244 164.126L305.824 164.211C306.249 164.276 306.558 164.613 306.558 165.016V176.085C306.558 176.638 307.128 177.05 307.689 176.872C309.187 176.394 311.488 175.477 312.686 174.1C314.165 172.386 315.818 169.446 317.645 165.269L319.52 160.877C319.616 160.652 319.597 160.399 319.481 160.184L293.548 115.213C293.442 115.025 293.258 114.885 293.036 114.819L288.947 113.667C288.58 113.564 288.329 113.246 288.329 112.881C288.329 112.431 288.715 112.066 289.199 112.066H300.971C304.48 112.066 307.254 112.75 309.313 114.108C311.372 115.475 313.14 117.479 314.619 120.139L326.363 140.526C326.721 141.135 327.668 141.079 327.939 140.433L337.566 117.086C337.739 116.664 337.517 116.196 337.082 116.027L330.838 113.686C330.51 113.564 330.287 113.265 330.287 112.928V112.871C330.287 112.422 330.674 112.057 331.157 112.057H348.13C348.613 112.057 349 112.422 349 112.871V112.909C349 113.246 348.778 113.555 348.439 113.677L341.277 116.196C341.045 116.28 340.861 116.449 340.774 116.664L320.689 165.25C318.534 170.438 316.243 174.194 313.807 176.507C311.381 178.82 307.65 179.972 304.548 179.972C301.503 180 299.145 179.241 297.463 177.724Z" fill="#F5DFD9"/>
<path d="M168.871 148.843C168.871 148.974 168.852 149.105 168.804 149.226C167.914 151.596 166.348 153.712 164.125 155.576C161.835 157.486 158.974 158.872 155.533 159.734C147.674 161.71 140.986 161.223 135.467 158.245C129.948 155.276 126.168 150.21 124.129 143.046C122.795 138.363 122.592 134.055 123.501 130.112C124.419 126.17 126.313 122.845 129.194 120.139C132.074 117.432 135.728 115.522 140.145 114.407C144.562 113.293 148.67 113.096 152.459 113.808C157.543 114.763 161.516 117.039 164.386 120.607C165.604 122.124 166.484 123.875 167.044 125.711C167.547 127.34 167.789 128.764 167.779 130L167.76 130.908C167.75 131.33 167.499 131.704 167.102 131.892C164.783 132.969 162.27 134.027 159.544 135.048C153.706 137.389 147.703 139.365 141.537 140.976C140.899 141.144 140.522 141.753 140.706 142.353C142.552 148.459 144.794 152.626 147.423 154.864C150.207 157.224 153.31 157.973 156.75 157.112C159.148 156.512 161.216 155.417 162.975 153.825C164.647 152.308 165.836 150.575 166.551 148.627C166.619 148.449 166.735 148.281 166.89 148.159L167.083 148.009C167.798 147.447 168.871 147.943 168.871 148.843ZM149.24 136.256C150.043 136.003 150.874 135.694 151.724 135.31C152.15 135.123 152.411 134.711 152.391 134.261C152.382 133.924 152.362 133.493 152.343 132.959C152.237 131.442 151.956 129.869 151.492 128.249C150.13 123.454 148.448 120.12 146.466 118.238C144.485 116.355 142.532 115.653 140.638 116.13C136.153 117.264 135.766 124.55 139.468 137.988C139.633 138.588 140.3 138.953 140.938 138.794C144.34 137.923 147.104 137.08 149.24 136.256Z" fill="#F5DFD9"/>
<path d="M197.307 158.732L200.594 157.936C202.314 157.514 203.522 156.016 203.522 154.302V88.2224C203.522 86.4992 202.314 85.0008 200.594 84.5888L197.307 83.7927C196.872 83.6897 196.563 83.3057 196.563 82.8749C196.563 82.3505 196.998 81.9291 197.539 81.9291H207.766C214.068 81.9291 219.181 86.8832 219.181 92.9892V154.302C219.181 156.025 220.389 157.524 222.109 157.936L225.396 158.732C225.831 158.835 226.14 159.219 226.14 159.65C226.14 160.174 225.705 160.595 225.164 160.595H197.539C196.998 160.595 196.563 160.174 196.563 159.65C196.573 159.219 196.872 158.835 197.307 158.732Z" fill="#F5DFD9"/>
<defs>
<filter id="filter0_d" x="221.056" y="89.17" width="24.03" height="20.7252" filterUnits="userSpaceOnUse" color-interpolation-filters="sRGB">
<feFlood flood-opacity="0" result="BackgroundImageFix"/>
<feColorMatrix in="SourceAlpha" type="matrix" values="0 0 0 0 0 0 0 0 0 0 0 0 0 0 0 0 0 0 127 0"/>
<feOffset dy="2"/>
<feGaussianBlur stdDeviation="1"/>
<feColorMatrix type="matrix" values="0 0 0 0 1 0 0 0 0 1 0 0 0 0 1 0 0 0 0.5 0"/>
<feBlend mode="normal" in2="BackgroundImageFix" result="effect1_dropShadow"/>
<feBlend mode="normal" in="SourceGraphic" in2="effect1_dropShadow" result="shape"/>
</filter>
<filter id="filter1_d" x="228.618" y="80.5243" width="17.4333" height="28.7739" filterUnits="userSpaceOnUse" color-interpolation-filters="sRGB">
<feFlood flood-opacity="0" result="BackgroundImageFix"/>
<feColorMatrix in="SourceAlpha" type="matrix" values="0 0 0 0 0 0 0 0 0 0 0 0 0 0 0 0 0 0 127 0"/>
<feOffset dy="2"/>
<feGaussianBlur stdDeviation="1"/>
<feColorMatrix type="matrix" values="0 0 0 0 1 0 0 0 0 1 0 0 0 0 1 0 0 0 0.5 0"/>
<feBlend mode="normal" in2="BackgroundImageFix" result="effect1_dropShadow"/>
<feBlend mode="normal" in="SourceGraphic" in2="effect1_dropShadow" result="shape"/>
</filter>
<filter id="filter2_d" x="238.17" y="80" width="17.003" height="29.6288" filterUnits="userSpaceOnUse" color-interpolation-filters="sRGB">
<feFlood flood-opacity="0" result="BackgroundImageFix"/>
<feColorMatrix in="SourceAlpha" type="matrix" values="0 0 0 0 0 0 0 0 0 0 0 0 0 0 0 0 0 0 127 0"/>
<feOffset dy="2"/>
<feGaussianBlur stdDeviation="1"/>
<feColorMatrix type="matrix" values="0 0 0 0 1 0 0 0 0 1 0 0 0 0 1 0 0 0 0.5 0"/>
<feBlend mode="normal" in2="BackgroundImageFix" result="effect1_dropShadow"/>
<feBlend mode="normal" in="SourceGraphic" in2="effect1_dropShadow" result="shape"/>
</filter>
<filter id="filter3_d" x="239.992" y="88.8377" width="22.6148" height="21.2921" filterUnits="userSpaceOnUse" color-interpolation-filters="sRGB">
<feFlood flood-opacity="0" result="BackgroundImageFix"/>
<feColorMatrix in="SourceAlpha" type="matrix" values="0 0 0 0 0 0 0 0 0 0 0 0 0 0 0 0 0 0 127 0"/>
<feOffset dy="2"/>
<feGaussianBlur stdDeviation="1"/>
<feColorMatrix type="matrix" values="0 0 0 0 1 0 0 0 0 1 0 0 0 0 1 0 0 0 0.5 0"/>
<feBlend mode="normal" in2="BackgroundImageFix" result="effect1_dropShadow"/>
<feBlend mode="normal" in="SourceGraphic" in2="effect1_dropShadow" result="shape"/>
</filter>
</defs>
</svg>
